# created with pCon.planner

mtllib fairy_companion.mtl

g mesh_0
v 0.83311437 -0.010334 0.090944335
v 0.83311437 0.031002101 0.090944335
v 0.81870341 -0.010334 0.25565993
v 0.81870341 0.031002101 0.25565993
v 0.81034041 0.0149667 0.29699593
v 0.81034041 0.0149667 0.35899993
v 0.80499042 -0.0049971002 0.29699593
v 0.80499042 -0.0049971002 0.35899993
v 0.79193537 -0.010334 0.08734164
v 0.79193537 0.031002101 0.08734164
v 0.78770137 -0.062004101 0.25565993
v 0.78770137 0.082672 0.25565993
v 0.78770138 -0.062004101 0.40033593
v 0.78770138 0.082672 0.40033593
v 0.77757441 0.037553601 0.17197394
v 0.77757442 0.073351704 0.19264194
v 0.77757442 0.0065516001 0.22567093
v 0.77757442 0.0423497 0.24633893
v 0.77752441 -0.010334 0.25205692
v 0.77752441 0.031002101 0.25205692
v 0.7773674 -0.020668 0.090315139
v 0.7773674 0.041336101 0.090315139
v 0.77736741 -0.020668 0.25565994
v 0.77736741 0.041336101 0.25565994
v 0.77530035 -0.0333356 -0.082652064
v 0.77530036 -0.085629299 -0.049337061
v 0.77530036 0.022763301 0.0020349383
v 0.77530036 0.022189099 0.0045039383
v 0.77530036 -0.038298901 0.012801939
v 0.77530037 -0.0301047 0.03781894
v 0.77530037 0.040708199 0.10380494
v 0.77530037 -0.020354001 0.11457194
v 0.77041239 0.0256653 0.29699594
v 0.7704124 0.0256653 0.35899994
v 0.76703341 -0.041336 0.40033594
v 0.76703341 0.062004201 0.40033594
v 0.76703341 -0.041336 0.42100394
v 0.76703341 0.062004201 0.42100394
v 0.76506341 0.0057015 0.29699594
v 0.76506341 0.0057015 0.35899994
v 0.75669939 -0.124008 0.29699594
v 0.75669939 -0.062004101 0.29699594
v 0.7566994 -0.124008 0.37966794
v 0.7566994 -0.062004101 0.37966794
v 0.71743038 -0.0333356 -0.082652059
v 0.71743039 -0.085629299 -0.049337056
v 0.71743039 0.022763301 0.0020349434
v 0.71743039 0.022189099 0.0045039433
v 0.71743039 -0.038298901 0.012801944
v 0.71743039 -0.0301047 0.037818945
v 0.7174304 0.040708199 0.10380494
v 0.7174304 -0.020354001 0.11457195
v 0.71329638 -0.0333356 -0.082652059
v 0.71329639 -0.085629299 -0.049337056
v 0.71329639 0.022763301 0.0020349437
v 0.71329639 0.022189099 0.0045039437
v 0.71329639 -0.038298901 0.012801944
v 0.7132964 -0.0301047 0.037818946
v 0.7132964 0.040708199 0.10380494
v 0.7132964 -0.020354001 0.11457195
v 0.67402739 -0.124008 0.29699594
v 0.67402739 -0.062004101 0.29699594
v 0.6740274 -0.124008 0.37966794
v 0.6740274 -0.062004101 0.37966794
v 0.66566343 0.0057015 0.29699595
v 0.66566343 0.0057015 0.35899995
v 0.66369338 -0.041336 0.40033595
v 0.66369338 0.062004201 0.40033595
v 0.66369338 -0.041336 0.42100395
v 0.66369338 0.062004201 0.42100395
v 0.66031439 0.0256653 0.29699595
v 0.66031439 0.0256653 0.35899995
v 0.65542635 -0.0333356 -0.082652054
v 0.65542636 -0.085629299 -0.049337051
v 0.65542636 0.022763301 0.0020349488
v 0.65542636 0.022189099 0.0045039487
v 0.65542636 -0.038298901 0.012801949
v 0.65542636 -0.0301047 0.037818951
v 0.65542637 0.040708199 0.10380495
v 0.65542637 -0.020354001 0.11457195
v 0.6535654 0.037553601 0.17197395
v 0.6535654 0.073351704 0.19264195
v 0.65356541 0.0065516001 0.22567094
v 0.65356541 0.0423497 0.24633894
v 0.6533594 -0.020668 0.090315149
v 0.6533594 0.041336101 0.090315149
v 0.65335941 -0.020668 0.25565995
v 0.65335941 0.041336101 0.25565995
v 0.65320242 -0.010334 0.25205694
v 0.65320242 0.031002101 0.25205694
v 0.6430254 -0.062004101 0.25565995
v 0.6430254 0.082672 0.25565995
v 0.64302541 -0.062004101 0.40033595
v 0.64302541 0.082672 0.40033595
v 0.63879137 -0.010334 0.087341654
v 0.63879137 0.031002101 0.087341654
v 0.62573642 -0.0049971002 0.29699595
v 0.62573643 -0.0049971002 0.35899995
v 0.62038643 0.0149667 0.29699595
v 0.62038643 0.0149667 0.35899995
v 0.61202341 -0.010334 0.25565995
v 0.61202341 0.031002101 0.25565995
v 0.59761237 -0.010334 0.090944356
v 0.59761237 0.031002101 0.090944356
vt 0.000244141 0.000244141
vt 0.000244141 0.077881001
vt 0.000244141 0.12524401
vt 0.000244141 0.24975599
vt 0.000244141 0.25024399
vt 0.000244141 0.28100601
vt 0.000244141 0.50024402
vt 0.000244141 0.56225598
vt 0.000244141 0.68774402
vt 0.000244141 0.70288098
vt 0.000244141 0.78149402
vt 0.000244141 0.89038098
vt 0.000244141 0.93774402
vt 0.000244141 0.98413098
vt 0.0153809 0.93774402
vt 0.0153809 0.98413098
vt 0.0158691 0.93774402
vt 0.0158691 0.98413098
vt 0.0158691 0.98461902
vt 0.0158691 0.99975598
vt 0.0466309 0.000244141
vt 0.0466309 0.077881001
vt 0.0466309 0.12524401
vt 0.0466309 0.24975599
vt 0.0466309 0.25024399
vt 0.0466309 0.28100601
vt 0.0466309 0.50024402
vt 0.0466309 0.56225598
vt 0.0466309 0.93774402
vt 0.0466309 0.98413098
vt 0.0466309 0.98461902
vt 0.0466309 0.99975598
vt 0.0471191 0.000244141
vt 0.0471191 0.077881001
vt 0.0471191 0.078369103
vt 0.0471191 0.124756
vt 0.0471191 0.12524401
vt 0.0471191 0.24975599
vt 0.0471191 0.25024399
vt 0.0471191 0.28100601
vt 0.0471191 0.28149399
vt 0.0471191 0.29663101
vt 0.0471191 0.32788101
vt 0.0471191 0.50024402
vt 0.0471191 0.56225598
vt 0.0471191 0.56274402
vt 0.0471191 0.60913098
vt 0.0471191 0.93774402
vt 0.0471191 0.98413098
vt 0.0471191 0.98461902
vt 0.0471191 0.99975598
vt 0.0622559 0.93774402
vt 0.0622559 0.98413098
vt 0.062744103 0.93774402
vt 0.062744103 0.98413098
vt 0.077880897 0.68774402
vt 0.077880897 0.70288098
vt 0.077880897 0.98461902
vt 0.077880897 0.99975598
vt 0.078369103 0.68774402
vt 0.078369103 0.70288098
vt 0.078369103 0.70336902
vt 0.078369103 0.78100598
vt 0.093505897 0.000244141
vt 0.093505897 0.077881001
vt 0.093505897 0.078369103
vt 0.093505897 0.124756
vt 0.093505897 0.93774402
vt 0.093505897 0.98413098
vt 0.093994103 0.000244141
vt 0.093994103 0.077881001
vt 0.093994103 0.078369103
vt 0.093994103 0.124756
vt 0.109131 0.50024402
vt 0.109131 0.56225598
vt 0.109131 0.56274402
vt 0.109131 0.60913098
vt 0.109131 0.78149402
vt 0.109131 0.89038098
vt 0.109619 0.50024402
vt 0.109619 0.56225598
vt 0.109619 0.56274402
vt 0.109619 0.60913098
vt 0.109619 0.78149402
vt 0.109619 0.89038098
vt 0.109619 0.89086902
vt 0.109619 0.99975598
vt 0.14038099 0.000244141
vt 0.14038099 0.077881001
vt 0.14038099 0.078369103
vt 0.14038099 0.124756
vt 0.14038099 0.12524401
vt 0.14038099 0.24975599
vt 0.14038099 0.25024399
vt 0.14038099 0.28100601
vt 0.14038099 0.28149399
vt 0.14038099 0.29663101
vt 0.14038099 0.32788101
vt 0.14086901 0.000244141
vt 0.14086901 0.077881001
vt 0.14086901 0.12524401
vt 0.14086901 0.24975599
vt 0.14086901 0.25024399
vt 0.14086901 0.28100601
vt 0.14086901 0.28149399
vt 0.14086901 0.29663101
vt 0.14086901 0.32788101
vt 0.15600599 0.50024402
vt 0.15600599 0.56225598
vt 0.15600599 0.68774402
vt 0.15600599 0.70288098
vt 0.15600599 0.70336902
vt 0.15600599 0.78100598
vt 0.15649401 0.50024402
vt 0.15649401 0.56225598
vt 0.15649401 0.68774402
vt 0.15649401 0.70288098
vt 0.15649401 0.70336902
vt 0.15649401 0.78100598
vt 0.17163099 0.56274402
vt 0.17163099 0.60913098
vt 0.18725599 0.000244141
vt 0.18725599 0.077881001
vt 0.18725599 0.12524401
vt 0.18725599 0.24975599
vt 0.18725599 0.25024399
vt 0.18725599 0.28100601
vt 0.18774401 0.000244141
vt 0.18774401 0.077881001
vt 0.18774401 0.12524401
vt 0.18774401 0.24975599
vt 0.18774401 0.25024399
vt 0.18774401 0.28100601
vt 0.21850599 0.50024402
vt 0.21850599 0.56225598
vt 0.21850599 0.78149402
vt 0.21850599 0.89038098
vt 0.21850599 0.89086902
vt 0.21850599 0.99975598
vt 0.21899401 0.78149402
vt 0.21899401 0.89038098
vt 0.21899401 0.89086902
vt 0.21899401 0.99975598
vt 0.23413099 0.000244141
vt 0.23413099 0.077881001
vt 0.23413099 0.25024399
vt 0.23413099 0.28149399
vt 0.23413099 0.29663101
vt 0.23413099 0.32788101
vt 0.23413099 0.68774402
vt 0.23413099 0.70288098
vt 0.23413099 0.70336902
vt 0.23413099 0.78100598
vt 0.23461901 0.000244141
vt 0.23461901 0.077881001
vt 0.23461901 0.078369103
vt 0.23461901 0.124756
vt 0.23461901 0.68774402
vt 0.23461901 0.70288098
vt 0.28100601 0.000244141
vt 0.28100601 0.077881001
vt 0.28100601 0.078369103
vt 0.28100601 0.124756
vt 0.28100601 0.12524401
vt 0.28100601 0.24975599
vt 0.28100601 0.25024399
vt 0.28100601 0.28100601
vt 0.28149399 0.000244141
vt 0.28149399 0.077881001
vt 0.28149399 0.078369103
vt 0.28149399 0.124756
vt 0.31225601 0.68774402
vt 0.31225601 0.70288098
vt 0.32788101 0.000244141
vt 0.32788101 0.077881001
vt 0.32788101 0.078369103
vt 0.32788101 0.124756
vt 0.32788101 0.78149402
vt 0.32788101 0.89038098
vt 0.32788101 0.89086902
vt 0.32788101 0.99975598
vt 0.32836899 0.000244141
vt 0.32836899 0.077881001
vt 0.32836899 0.78149402
vt 0.32836899 0.89038098
vt 0.37475601 0.000244141
vt 0.37475601 0.077881001
vt 0.43725601 0.78149402
vt 0.43725601 0.89038098
vt 0.85961902 0.000244141
vt 0.85961902 0.124756
vt 0.89038098 0.000244141
vt 0.89038098 0.124756
vt 0.89086902 0.000244141
vt 0.89086902 0.124756
vt 0.89086902 0.12524401
vt 0.89086902 0.15600599
vt 0.92163098 0.000244141
vt 0.92163098 0.124756
vt 0.92163098 0.12524401
vt 0.92163098 0.15600599
vt 0.92211902 0.000244141
vt 0.92211902 0.124756
vt 0.92211902 0.12524401
vt 0.92211902 0.15600599
vt 0.95288098 0.000244141
vt 0.95288098 0.124756
vt 0.95288098 0.12524401
vt 0.95288098 0.15600599
vt 0.95336902 0.000244141
vt 0.95336902 0.124756
vt 0.98413098 0.000244141
vt 0.98413098 0.124756
vn 1 0 -0.00000008742278
vn 0.99619465 0 -0.087156255
vn 0.99619457 0 0.087157175
vn 0.96592585 -0.25881897 -0.000000084443922
vn 0.96592528 0.25882109 -0.000000084443873
vn 0.25881989 -0.9659256 -0.000000022626754
vn 0.25881989 0.9659256 -0.000000022626754
vn 0.087157053 0 0.99619458
vn 0.087156081 0 -0.99619467
vn -0.00000008742278 0 -1
vn -0.000000086094602 -0.17365007 -0.98480742
vn -0.000000075710399 0.49999899 -0.86602599
vn -0.000000075710399 -0.53730198 -0.84338993
vn -0.00000004697233 0.84339069 -0.5373008
vn -0.000000043711368 -0.86602555 -0.49999975
vn -0.000000015180872 0.98480762 -0.17364893
vn 0 -1 0
vn 0 1 0
vn 0.000000015180872 -0.98480762 0.17364893
vn 0.000000043711301 0.86602599 0.49999899
vn 0.00000004697233 -0.84339069 0.5373008
vn 0.000000075710399 0.53730198 0.84338993
vn 0.0000000757103 -0.50000095 0.86602486
vn 0.000000086094634 0.17364796 0.98480779
vn 0.00000008742278 0 1
vn -0.087156255 0 -0.99619465
vn -0.087156776 0 0.99619461
vn -0.25881989 -0.9659256 0.000000022626754
vn -0.25881989 0.9659256 0.000000022626754
vn -0.96592528 -0.25882109 0.000000084443873
vn -0.96592585 0.25881897 0.000000084443922
vn -0.99619467 0 -0.087156081
vn -0.99619452 0 0.087157741
vn -1 0 0.00000008742278
usemtl mat__1_091154fe
f 13/179/1 11/178/1 14/141/1
f 11/178/1 12/140/1 14/141/1
f 94/79/34 92/78/34 93/12/34
f 92/78/34 91/11/34 93/12/34
f 94/86/25 93/87/25 14/138/25
f 93/87/25 13/139/25 14/138/25
f 91/143/10 92/142/10 11/181/10
f 92/142/10 12/180/10 11/181/10
f 93/189/17 91/188/17 13/185/17
f 91/188/17 11/184/17 13/185/17
f 14/137/18 12/136/18 94/85/18
f 12/136/18 92/84/18 94/85/18
f 43/109/1 41/108/1 44/81/1
f 41/108/1 42/80/1 44/81/1
f 64/28/34 62/27/34 63/8/34
f 62/27/34 61/7/34 63/8/34
f 64/46/25 63/47/25 44/76/25
f 63/47/25 43/77/25 44/76/25
f 61/83/10 62/82/10 41/121/10
f 62/82/10 42/120/10 41/121/10
f 63/135/17 61/134/17 43/115/17
f 61/134/17 41/114/17 43/115/17
f 44/75/18 42/74/18 64/45/18
f 42/74/18 62/44/18 64/45/18
f 37/151/1 35/150/1 38/117/1
f 35/150/1 36/116/1 38/117/1
f 70/57/34 68/56/34 69/10/34
f 68/56/34 67/9/34 69/10/34
f 70/62/25 69/63/25 38/112/25
f 69/63/25 37/113/25 38/112/25
f 67/119/10 68/118/10 35/153/10
f 68/118/10 36/152/10 35/153/10
f 69/173/17 67/172/17 37/159/17
f 67/172/17 35/158/17 37/159/17
f 38/111/18 36/110/18 70/61/18
f 36/110/18 68/60/18 70/61/18
f 66/53/5 65/52/5 72/49/5
f 65/52/5 71/48/5 72/49/5
f 100/16/30 99/15/30 98/14/30
f 99/15/30 97/13/30 98/14/30
f 100/19/25 98/20/25 72/31/25
f 98/20/25 66/32/25 72/31/25
f 97/51/10 99/50/10 65/59/10
f 99/50/10 71/58/10 65/59/10
f 98/69/6 97/68/6 66/55/6
f 97/68/6 65/54/6 66/55/6
f 72/30/29 71/29/29 100/18/29
f 71/29/29 99/17/29 100/18/29
f 8/14/4 7/13/4 6/16/4
f 7/13/4 5/15/4 6/16/4
f 34/49/31 33/48/31 40/53/31
f 33/48/31 39/52/31 40/53/31
f 34/31/25 40/32/25 6/19/25
f 40/32/25 8/20/25 6/19/25
f 39/59/10 33/58/10 7/51/10
f 33/58/10 5/50/10 7/51/10
f 40/55/28 39/54/28 8/69/28
f 39/54/28 7/68/28 8/69/28
f 6/18/7 5/17/7 34/30/7
f 5/17/7 33/29/7 34/30/7
f 23/125/1 21/124/1 24/102/1
f 21/124/1 22/101/1 24/102/1
f 88/24/34 86/23/34 87/4/34
f 86/23/34 85/3/34 87/4/34
f 88/39/25 87/42/25 24/94/25
f 87/42/25 23/97/25 24/94/25
f 85/106/10 86/103/10 21/148/10
f 86/103/10 22/146/10 21/148/10
f 87/165/17 85/164/17 23/131/17
f 85/164/17 21/130/17 23/131/17
f 24/93/18 22/92/18 88/38/18
f 22/92/18 86/37/18 88/38/18
f 18/127/1 17/126/1 16/104/1
f 17/126/1 15/103/1 16/104/1
f 82/26/34 81/25/34 84/6/34
f 81/25/34 83/5/34 84/6/34
f 82/41/20 84/43/20 16/96/20
f 84/43/20 18/98/20 16/96/20
f 83/107/15 81/105/15 17/149/15
f 81/105/15 15/147/15 17/149/15
f 84/167/23 83/166/23 18/133/23
f 83/166/23 17/132/23 18/133/23
f 16/95/12 15/94/12 82/40/12
f 15/94/12 81/39/12 82/40/12
f 89/207/2 95/206/2 90/203/2
f 95/206/2 96/202/2 90/203/2
f 102/193/33 104/192/33 101/191/33
f 104/192/33 103/190/33 101/191/33
f 102/196/8 101/197/8 90/200/8
f 101/197/8 89/201/8 90/200/8
f 103/205/26 104/204/26 95/209/26
f 104/204/26 96/208/26 95/209/26
f 101/213/17 103/212/17 89/211/17
f 103/212/17 95/210/17 89/211/17
f 90/199/18 96/198/18 102/195/18
f 96/198/18 104/194/18 102/195/18
f 52/89/1 49/88/1 51/71/1
f 49/88/1 47/70/1 51/71/1
f 79/22/34 75/21/34 80/2/34
f 75/21/34 77/1/34 80/2/34
f 79/35/24 80/36/24 51/66/24
f 80/36/24 52/67/24 51/66/24
f 77/73/11 75/72/11 49/91/11
f 75/72/11 47/90/11 49/91/11
f 80/123/19 77/122/19 52/100/19
f 77/122/19 49/99/19 52/100/19
f 51/65/16 47/64/16 79/34/16
f 47/64/16 75/33/16 79/34/16
f 50/175/1 46/174/1 48/169/1
f 46/174/1 45/168/1 48/169/1
f 76/145/34 73/144/34 78/129/34
f 73/144/34 74/128/34 78/129/34
f 76/156/22 78/157/22 48/162/22
f 78/157/22 50/163/22 48/162/22
f 74/171/13 73/170/13 46/177/13
f 73/170/13 45/176/13 46/177/13
f 78/187/21 74/186/21 50/183/21
f 74/186/21 46/182/21 50/183/21
f 48/161/14 45/160/14 76/155/14
f 45/160/14 73/154/14 76/155/14
f 32/2/1 29/1/1 31/22/1
f 29/1/1 27/21/1 31/22/1
f 59/71/34 55/70/34 60/89/34
f 55/70/34 57/88/34 60/89/34
f 59/66/24 60/67/24 31/35/24
f 60/67/24 32/36/24 31/35/24
f 57/91/11 55/90/11 29/73/11
f 55/90/11 27/72/11 29/73/11
f 60/100/19 57/99/19 32/123/19
f 57/99/19 29/122/19 32/123/19
f 31/34/16 27/33/16 59/65/16
f 27/33/16 55/64/16 59/65/16
f 30/129/1 26/128/1 28/145/1
f 26/128/1 25/144/1 28/145/1
f 56/169/34 53/168/34 58/175/34
f 53/168/34 54/174/34 58/175/34
f 56/162/22 58/163/22 28/156/22
f 58/163/22 30/157/22 28/156/22
f 54/177/13 53/176/13 26/171/13
f 53/176/13 25/170/13 26/171/13
f 58/183/21 54/182/21 30/187/21
f 54/182/21 26/186/21 30/187/21
f 28/155/14 25/154/14 56/161/14
f 25/154/14 53/160/14 56/161/14
f 3/191/3 1/190/3 4/193/3
f 1/190/3 2/192/3 4/193/3
f 20/203/32 10/202/32 19/207/32
f 10/202/32 9/206/32 19/207/32
f 20/200/27 19/201/27 4/196/27
f 19/201/27 3/197/27 4/196/27
f 9/209/9 10/208/9 1/205/9
f 10/208/9 2/204/9 1/205/9
f 19/211/17 9/210/17 3/213/17
f 9/210/17 1/212/17 3/213/17
f 4/195/18 2/194/18 20/199/18
f 2/194/18 10/198/18 20/199/18
